<svg xmlns="http://www.w3.org/2000/svg" width="1024" height="768" viewBox="0 0 1024 768" fill="none">
  <defs>
    <linearGradient id="bg" x1="0" y1="0" x2="1024" y2="768" gradientUnits="userSpaceOnUse">
      <stop stop-color="#141014"/>
      <stop offset="1" stop-color="#1e1a1e"/>
    </linearGradient>
    <radialGradient id="glow1" cx="0" cy="0" r="1" gradientUnits="userSpaceOnUse">
      <stop stop-color="#b565d8" stop-opacity="0.2"/>
      <stop offset="1" stop-color="#b565d8" stop-opacity="0"/>
    </radialGradient>
    <radialGradient id="glow2" cx="1024" cy="768" r="1" gradientUnits="userSpaceOnUse">
      <stop stop-color="#8e3fb5" stop-opacity="0.18"/>
      <stop offset="1" stop-color="#8e3fb5" stop-opacity="0"/>
    </radialGradient>
    <linearGradient id="passGrad" x1="0" y1="0" x2="1" y2="1">
      <stop stop-color="#6d2d8f"/>
      <stop offset="1" stop-color="#b565d8"/>
    </linearGradient>
  </defs>
  <rect width="1024" height="768" fill="url(#bg)"/>
  <rect width="1024" height="768" fill="url(#glow1)"/>
  <rect width="1024" height="768" fill="url(#glow2)"/>
  <g opacity="0.06" stroke="#ffffff">
    <path d="M0 64H1024M0 128H1024M0 192H1024M0 256H1024M0 320H1024M0 384H1024M0 448H1024M0 512H1024M0 576H1024M0 640H1024M0 704H1024"/>
    <path d="M64 0V768M128 0V768M192 0V768M256 0V768M320 0V768M384 0V768M448 0V768M512 0V768M576 0V768M640 0V768M704 0V768M768 0V768M832 0V768M896 0V768M960 0V768"/>
  </g>
  <rect x="262" y="130" width="500" height="360" rx="28" fill="#ffffff" fill-opacity="0.05" stroke="#ffffff" stroke-opacity="0.1"/>
  <rect x="298" y="170" width="428" height="180" rx="20" fill="url(#passGrad)" fill-opacity="0.2" stroke="#ffffff" stroke-opacity="0.2"/>
  <rect x="298" y="170" width="428" height="180" rx="20" fill="#ffffff" fill-opacity="0.04"/>
  <text x="328" y="212" fill="#ffffff" font-family="Arial" font-size="16" font-weight="800">TechNest Summit</text>
  <text x="328" y="238" fill="#e0baf2" font-family="Arial" font-size="12">General Admission · Day Pass</text>
  <text x="328" y="298" fill="#f3e6ff" font-family="Arial" font-size="15" font-weight="700">Tap to check in</text>
  <text x="328" y="320" fill="#967f9c" font-family="Arial" font-size="11">No queues, no printed tickets</text>
  <rect x="620" y="200" width="90" height="90" rx="12" fill="#ffffff" fill-opacity="0.06" stroke="#b565d8" stroke-opacity="0.6"/>
  <text x="650" y="242" fill="#d9a3ec" font-family="Arial" font-size="10" font-weight="700">EVENT</text>
  <text x="642" y="268" fill="#a99ab0" font-family="Arial" font-size="9">NFC PASS</text>
  <rect x="298" y="380" width="428" height="60" rx="14" fill="#ffffff" fill-opacity="0.04" stroke="#ffffff" stroke-opacity="0.08"/>
  <circle cx="330" cy="410" r="3" fill="#b565d8"/>
  <text x="346" y="414" fill="#a99ab0" font-family="Arial" font-size="12">Check-in completed in 0.4s</text>
  <text x="512" y="590" text-anchor="middle" fill="#b9a9c0" font-family="Arial" font-size="20" font-weight="700">Tap to enter. Instantly.</text>
  <text x="512" y="622" text-anchor="middle" fill="#8a748f" font-family="Arial" font-size="14">NFC Event Solutions</text>
</svg>
